<svg xmlns="http://www.w3.org/2000/svg" width="1080" height="2400" viewBox="0 0 1080 2400">
    <rect width="1080" height="2400" fill="#FFFFFF"/>
    <style>
      .t { font-family: 'Inter','Arial',sans-serif; fill:#111215; }
      .m { font-family: 'Inter','Arial',sans-serif; fill:#70757D; }
    </style>
    <title>04 Profile Setup</title><text x="72" y="78" font-family="Inter, Arial, sans-serif" font-size="28" font-weight="650" text-anchor="start" fill="#111215">9:41</text><path d="M870 65 l18 0 l-9 14 z" fill="#111215" stroke="none" stroke-width="0" stroke-linecap="round" stroke-linejoin="round" opacity="1"/><path d="M906 79 l13 -18 l0 18 z" fill="#111215" stroke="none" stroke-width="0" stroke-linecap="round" stroke-linejoin="round" opacity="1"/><rect x="944" y="59" width="28" height="20" rx="3" fill="#111215" stroke="none" stroke-width="0" opacity="1"/><path d="M78 166 L50 194 L78 222" fill="none" stroke="#111215" stroke-width="7" stroke-linecap="round" stroke-linejoin="round" opacity="1"/><text x="540" y="205" font-family="Inter, Arial, sans-serif" font-size="42" font-weight="700" text-anchor="middle" fill="#111215">Tell us about you</text><circle cx="540" cy="520" r="128" fill="#D7FF7A" stroke="none" stroke-width="0" opacity="1"/><text x="540" y="536" font-family="Inter, Arial, sans-serif" font-size="42" font-weight="700" text-anchor="middle" fill="#111215">JD</text><circle cx="650" cy="620" r="44" fill="#111215" stroke="none" stroke-width="0" opacity="1"/><text x="650" y="635" font-family="Inter, Arial, sans-serif" font-size="28" font-weight="700" text-anchor="middle" fill="#FFF">⌁</text><rect x="100" y="820" width="880" height="120" rx="24" fill="#FFF" stroke="#E7E9EC" stroke-width="3" opacity="1"/><text x="145" y="896" font-family="Inter, Arial, sans-serif" font-size="34" font-weight="500" text-anchor="start" fill="#111215">John Doe</text><rect x="100" y="980" width="880" height="120" rx="24" fill="#FFF" stroke="#E7E9EC" stroke-width="3" opacity="1"/><text x="145" y="1056" font-family="Inter, Arial, sans-serif" font-size="34" font-weight="500" text-anchor="start" fill="#111215">+234 801 234 5678</text><rect x="100" y="1140" width="880" height="120" rx="24" fill="#FFF" stroke="#E7E9EC" stroke-width="3" opacity="1"/><text x="145" y="1216" font-family="Inter, Arial, sans-serif" font-size="34" font-weight="500" text-anchor="start" fill="#111215">johndoe@gmail.com</text><text x="105" y="1325" font-family="Inter, Arial, sans-serif" font-size="27" font-weight="450" text-anchor="start" fill="#70757D">This information is only shared when you approve it.</text><rect x="70" y="1990" width="940" height="112" rx="56.0" fill="#B6FF20" stroke="none" stroke-width="3" opacity="1"/><text x="540.0" y="2060.0" font-family="Inter, Arial, sans-serif" font-size="38" font-weight="700" text-anchor="middle" fill="#111215">Continue</text><rect x="405" y="2325" width="270" height="10" rx="5" fill="#222" stroke="none" stroke-width="0" opacity="1"/></svg>