<svg xmlns="http://www.w3.org/2000/svg" width="1080" height="2400" viewBox="0 0 1080 2400">
    <rect width="1080" height="2400" fill="#FFFFFF"/>
    <style>
      .t { font-family: 'Inter','Arial',sans-serif; fill:#111215; }
      .m { font-family: 'Inter','Arial',sans-serif; fill:#70757D; }
    </style>
    <title>09 Sender Request Sent</title><text x="72" y="78" font-family="Inter, Arial, sans-serif" font-size="28" font-weight="650" text-anchor="start" fill="#111215">9:41</text><path d="M870 65 l18 0 l-9 14 z" fill="#111215" stroke="none" stroke-width="0" stroke-linecap="round" stroke-linejoin="round" opacity="1"/><path d="M906 79 l13 -18 l0 18 z" fill="#111215" stroke="none" stroke-width="0" stroke-linecap="round" stroke-linejoin="round" opacity="1"/><rect x="944" y="59" width="28" height="20" rx="3" fill="#111215" stroke="none" stroke-width="0" opacity="1"/><path d="M78 166 L50 194 L78 222" fill="none" stroke="#111215" stroke-width="7" stroke-linecap="round" stroke-linejoin="round" opacity="1"/><text x="540" y="205" font-family="Inter, Arial, sans-serif" font-size="42" font-weight="700" text-anchor="middle" fill="#111215">Connecting</text><circle cx="540" cy="560" r="128" fill="none" stroke="#B6FF20" stroke-width="7" opacity="1"/><circle cx="540" cy="560" r="120" fill="#FFE1CF" stroke="none" stroke-width="0" opacity="1"/><text x="540" y="576" font-family="Inter, Arial, sans-serif" font-size="42" font-weight="700" text-anchor="middle" fill="#111215">A</text><text x="540" y="760" font-family="Inter, Arial, sans-serif" font-size="44" font-weight="750" text-anchor="middle" fill="#111215">Ada's Phone</text><text x="540" y="815" font-family="Inter, Arial, sans-serif" font-size="28" font-weight="450" text-anchor="middle" fill="#70757D">Android 13</text><text x="540" y="1100" font-family="Inter, Arial, sans-serif" font-size="36" font-weight="500" text-anchor="middle" fill="#111215"><tspan x="540" dy="0">Connection request sent.</tspan><tspan x="540" dy="54">Waiting for Ada to accept…</tspan></text><circle cx="500" cy="1290" r="10" fill="#B6FF20" stroke="none" stroke-width="0" opacity="1"/><circle cx="540" cy="1290" r="10" fill="#D3D5D8" stroke="none" stroke-width="0" opacity="1"/><circle cx="580" cy="1290" r="10" fill="#D3D5D8" stroke="none" stroke-width="0" opacity="1"/><rect x="70" y="1980" width="940" height="112" rx="56.0" fill="#FFFFFF" stroke="#E7E9EC" stroke-width="3" opacity="1"/><text x="540.0" y="2050.0" font-family="Inter, Arial, sans-serif" font-size="38" font-weight="700" text-anchor="middle" fill="#111215">Cancel Request</text><rect x="405" y="2325" width="270" height="10" rx="5" fill="#222" stroke="none" stroke-width="0" opacity="1"/></svg>