<svg xmlns="http://www.w3.org/2000/svg" width="1080" height="2400" viewBox="0 0 1080 2400">
    <rect width="1080" height="2400" fill="#FFFFFF"/>
    <style>
      .t { font-family: 'Inter','Arial',sans-serif; fill:#111215; }
      .m { font-family: 'Inter','Arial',sans-serif; fill:#70757D; }
    </style>
    <title>14 Select Files</title><text x="72" y="78" font-family="Inter, Arial, sans-serif" font-size="28" font-weight="650" text-anchor="start" fill="#111215">9:41</text><path d="M870 65 l18 0 l-9 14 z" fill="#111215" stroke="none" stroke-width="0" stroke-linecap="round" stroke-linejoin="round" opacity="1"/><path d="M906 79 l13 -18 l0 18 z" fill="#111215" stroke="none" stroke-width="0" stroke-linecap="round" stroke-linejoin="round" opacity="1"/><rect x="944" y="59" width="28" height="20" rx="3" fill="#111215" stroke="none" stroke-width="0" opacity="1"/><path d="M78 166 L50 194 L78 222" fill="none" stroke="#111215" stroke-width="7" stroke-linecap="round" stroke-linejoin="round" opacity="1"/><text x="540" y="205" font-family="Inter, Arial, sans-serif" font-size="42" font-weight="700" text-anchor="middle" fill="#111215">Send Files</text><rect x="70" y="280" width="160" height="72" rx="36" fill="#F2F3F4" stroke="none" stroke-width="0" opacity="1"/><text x="150.0" y="327" font-family="Inter, Arial, sans-serif" font-size="27" font-weight="650" text-anchor="middle" fill="#111215">Contacts</text><rect x="245" y="280" width="140" height="72" rx="36" fill="#B6FF20" stroke="none" stroke-width="0" opacity="1"/><text x="315.0" y="327" font-family="Inter, Arial, sans-serif" font-size="27" font-weight="650" text-anchor="middle" fill="#111215">Photos</text><rect x="400" y="280" width="140" height="72" rx="36" fill="#F2F3F4" stroke="none" stroke-width="0" opacity="1"/><text x="470.0" y="327" font-family="Inter, Arial, sans-serif" font-size="27" font-weight="650" text-anchor="middle" fill="#111215">Videos</text><rect x="555" y="280" width="190" height="72" rx="36" fill="#F2F3F4" stroke="none" stroke-width="0" opacity="1"/><text x="650.0" y="327" font-family="Inter, Arial, sans-serif" font-size="27" font-weight="650" text-anchor="middle" fill="#111215">Documents</text><rect x="70" y="460" width="280" height="260" rx="22" fill="#DBF6C4" stroke="none" stroke-width="0" opacity="1"/><circle cx="271.6" cy="532.8" r="26" fill="#FFD66B" stroke="none" stroke-width="0" opacity="1"/><path d="M90 695 L182.0 569.2 L232.39999999999998 636.8 L335 538.0 L335 700 Z" fill="#8FD06D" stroke="none" stroke-width="0" stroke-linecap="round" stroke-linejoin="round" opacity="1"/><circle cx="322" cy="488" r="22" fill="#B6FF20" stroke="none" stroke-width="0" opacity="1"/><path d="M 309 488 l10 10 l20 -24" fill="none" stroke="#111215" stroke-width="6" stroke-linecap="round" stroke-linejoin="round" opacity="1"/><rect x="390" y="460" width="280" height="260" rx="22" fill="#DBF6C4" stroke="none" stroke-width="0" opacity="1"/><circle cx="591.6" cy="532.8" r="26" fill="#FFD66B" stroke="none" stroke-width="0" opacity="1"/><path d="M410 695 L502.0 569.2 L552.4 636.8 L655 538.0 L655 700 Z" fill="#8FD06D" stroke="none" stroke-width="0" stroke-linecap="round" stroke-linejoin="round" opacity="1"/><rect x="710" y="460" width="280" height="260" rx="22" fill="#DBF6C4" stroke="none" stroke-width="0" opacity="1"/><circle cx="911.6" cy="532.8" r="26" fill="#FFD66B" stroke="none" stroke-width="0" opacity="1"/><path d="M730 695 L822.0 569.2 L872.4 636.8 L975 538.0 L975 700 Z" fill="#8FD06D" stroke="none" stroke-width="0" stroke-linecap="round" stroke-linejoin="round" opacity="1"/><circle cx="962" cy="488" r="22" fill="#B6FF20" stroke="none" stroke-width="0" opacity="1"/><path d="M 949 488 l10 10 l20 -24" fill="none" stroke="#111215" stroke-width="6" stroke-linecap="round" stroke-linejoin="round" opacity="1"/><rect x="70" y="770" width="280" height="260" rx="22" fill="#DBF6C4" stroke="none" stroke-width="0" opacity="1"/><circle cx="271.6" cy="842.8" r="26" fill="#FFD66B" stroke="none" stroke-width="0" opacity="1"/><path d="M90 1005 L182.0 879.2 L232.39999999999998 946.8 L335 848.0 L335 1010 Z" fill="#8FD06D" stroke="none" stroke-width="0" stroke-linecap="round" stroke-linejoin="round" opacity="1"/><rect x="390" y="770" width="280" height="260" rx="22" fill="#DBF6C4" stroke="none" stroke-width="0" opacity="1"/><circle cx="591.6" cy="842.8" r="26" fill="#FFD66B" stroke="none" stroke-width="0" opacity="1"/><path d="M410 1005 L502.0 879.2 L552.4 946.8 L655 848.0 L655 1010 Z" fill="#8FD06D" stroke="none" stroke-width="0" stroke-linecap="round" stroke-linejoin="round" opacity="1"/><circle cx="642" cy="798" r="22" fill="#B6FF20" stroke="none" stroke-width="0" opacity="1"/><path d="M 629 798 l10 10 l20 -24" fill="none" stroke="#111215" stroke-width="6" stroke-linecap="round" stroke-linejoin="round" opacity="1"/><rect x="710" y="770" width="280" height="260" rx="22" fill="#DBF6C4" stroke="none" stroke-width="0" opacity="1"/><circle cx="911.6" cy="842.8" r="26" fill="#FFD66B" stroke="none" stroke-width="0" opacity="1"/><path d="M730 1005 L822.0 879.2 L872.4 946.8 L975 848.0 L975 1010 Z" fill="#8FD06D" stroke="none" stroke-width="0" stroke-linecap="round" stroke-linejoin="round" opacity="1"/><rect x="70" y="1080" width="280" height="260" rx="22" fill="#DBF6C4" stroke="none" stroke-width="0" opacity="1"/><circle cx="271.6" cy="1152.8" r="26" fill="#FFD66B" stroke="none" stroke-width="0" opacity="1"/><path d="M90 1315 L182.0 1189.2 L232.39999999999998 1256.8 L335 1158.0 L335 1320 Z" fill="#8FD06D" stroke="none" stroke-width="0" stroke-linecap="round" stroke-linejoin="round" opacity="1"/><rect x="390" y="1080" width="280" height="260" rx="22" fill="#DBF6C4" stroke="none" stroke-width="0" opacity="1"/><circle cx="591.6" cy="1152.8" r="26" fill="#FFD66B" stroke="none" stroke-width="0" opacity="1"/><path d="M410 1315 L502.0 1189.2 L552.4 1256.8 L655 1158.0 L655 1320 Z" fill="#8FD06D" stroke="none" stroke-width="0" stroke-linecap="round" stroke-linejoin="round" opacity="1"/><rect x="710" y="1080" width="280" height="260" rx="22" fill="#DBF6C4" stroke="none" stroke-width="0" opacity="1"/><circle cx="911.6" cy="1152.8" r="26" fill="#FFD66B" stroke="none" stroke-width="0" opacity="1"/><path d="M730 1315 L822.0 1189.2 L872.4 1256.8 L975 1158.0 L975 1320 Z" fill="#8FD06D" stroke="none" stroke-width="0" stroke-linecap="round" stroke-linejoin="round" opacity="1"/><rect x="80" y="1450" width="42" height="42" rx="10" fill="#FFF" stroke="#A8ADB4" stroke-width="3" opacity="1"/><text x="145" y="1482" font-family="Inter, Arial, sans-serif" font-size="29" font-weight="550" text-anchor="start" fill="#111215">Select All</text><text x="930" y="1482" font-family="Inter, Arial, sans-serif" font-size="27" font-weight="600" text-anchor="end" fill="#70757D">3 selected</text><rect x="70" y="1985" width="940" height="112" rx="56.0" fill="#B6FF20" stroke="none" stroke-width="3" opacity="1"/><text x="540.0" y="2055.0" font-family="Inter, Arial, sans-serif" font-size="38" font-weight="700" text-anchor="middle" fill="#111215">Send (3)</text><rect x="405" y="2325" width="270" height="10" rx="5" fill="#222" stroke="none" stroke-width="0" opacity="1"/></svg>