<svg xmlns="http://www.w3.org/2000/svg" width="1080" height="2400" viewBox="0 0 1080 2400">
    <rect width="1080" height="2400" fill="#FFFFFF"/>
    <style>
      .t { font-family: 'Inter','Arial',sans-serif; fill:#111215; }
      .m { font-family: 'Inter','Arial',sans-serif; fill:#70757D; }
    </style>
    <title>23 Contact Exchange Approval</title><text x="72" y="78" font-family="Inter, Arial, sans-serif" font-size="28" font-weight="650" text-anchor="start" fill="#111215">9:41</text><path d="M870 65 l18 0 l-9 14 z" fill="#111215" stroke="none" stroke-width="0" stroke-linecap="round" stroke-linejoin="round" opacity="1"/><path d="M906 79 l13 -18 l0 18 z" fill="#111215" stroke="none" stroke-width="0" stroke-linecap="round" stroke-linejoin="round" opacity="1"/><rect x="944" y="59" width="28" height="20" rx="3" fill="#111215" stroke="none" stroke-width="0" opacity="1"/><path d="M78 166 L50 194 L78 222" fill="none" stroke="#111215" stroke-width="7" stroke-linecap="round" stroke-linejoin="round" opacity="1"/><text x="540" y="205" font-family="Inter, Arial, sans-serif" font-size="42" font-weight="700" text-anchor="middle" fill="#111215">Contact Exchange</text><circle cx="540" cy="470" r="108" fill="none" stroke="#B6FF20" stroke-width="7" opacity="1"/><circle cx="540" cy="470" r="100" fill="#D8EEFF" stroke="none" stroke-width="0" opacity="1"/><text x="540" y="486" font-family="Inter, Arial, sans-serif" font-size="42" font-weight="700" text-anchor="middle" fill="#111215">J</text><text x="540" y="640" font-family="Inter, Arial, sans-serif" font-size="35" font-weight="700" text-anchor="middle" fill="#111215">John wants to exchange contacts</text><text x="540" y="695" font-family="Inter, Arial, sans-serif" font-size="28" font-weight="450" text-anchor="middle" fill="#70757D">Choose what you want to share.</text><rect x="70" y="900" width="940" height="150" rx="24" fill="#FBFCFA" stroke="#E7E9EC" stroke-width="2" opacity="1"/><text x="110" y="955" font-family="Inter, Arial, sans-serif" font-size="25" font-weight="500" text-anchor="start" fill="#70757D">Name</text><text x="110" y="1005" font-family="Inter, Arial, sans-serif" font-size="31" font-weight="620" text-anchor="start" fill="#111215">Ada Nwosu</text><rect x="925" y="950" width="42" height="42" rx="10" fill="#B6FF20" stroke="#B6FF20" stroke-width="3" opacity="1"/><path d="M 935 972 l8 8 l16 -18" fill="none" stroke="#111215" stroke-width="5" stroke-linecap="round" stroke-linejoin="round" opacity="1"/><rect x="70" y="1080" width="940" height="150" rx="24" fill="#FBFCFA" stroke="#E7E9EC" stroke-width="2" opacity="1"/><text x="110" y="1135" font-family="Inter, Arial, sans-serif" font-size="25" font-weight="500" text-anchor="start" fill="#70757D">Phone</text><text x="110" y="1185" font-family="Inter, Arial, sans-serif" font-size="31" font-weight="620" text-anchor="start" fill="#111215">+234 805 000 1122</text><rect x="925" y="1130" width="42" height="42" rx="10" fill="#B6FF20" stroke="#B6FF20" stroke-width="3" opacity="1"/><path d="M 935 1152 l8 8 l16 -18" fill="none" stroke="#111215" stroke-width="5" stroke-linecap="round" stroke-linejoin="round" opacity="1"/><rect x="70" y="1260" width="940" height="150" rx="24" fill="#FBFCFA" stroke="#E7E9EC" stroke-width="2" opacity="1"/><text x="110" y="1315" font-family="Inter, Arial, sans-serif" font-size="25" font-weight="500" text-anchor="start" fill="#70757D">Email</text><text x="110" y="1365" font-family="Inter, Arial, sans-serif" font-size="31" font-weight="620" text-anchor="start" fill="#111215">ada@example.com</text><rect x="925" y="1310" width="42" height="42" rx="10" fill="#FFF" stroke="#A8ADB4" stroke-width="3" opacity="1"/><text x="70" y="1515" font-family="Inter, Arial, sans-serif" font-size="26" font-weight="500" text-anchor="start" fill="#70757D">Nothing is shared until you confirm.</text><rect x="70" y="1835" width="940" height="112" rx="56.0" fill="#B6FF20" stroke="none" stroke-width="3" opacity="1"/><text x="540.0" y="1905.0" font-family="Inter, Arial, sans-serif" font-size="38" font-weight="700" text-anchor="middle" fill="#111215">Share Selected Details</text><rect x="70" y="1985" width="940" height="112" rx="56.0" fill="#FFFFFF" stroke="#E7E9EC" stroke-width="3" opacity="1"/><text x="540.0" y="2055.0" font-family="Inter, Arial, sans-serif" font-size="38" font-weight="700" text-anchor="middle" fill="#111215">Decline</text><rect x="405" y="2325" width="270" height="10" rx="5" fill="#222" stroke="none" stroke-width="0" opacity="1"/></svg>