<svg xmlns="http://www.w3.org/2000/svg" width="1080" height="2400" viewBox="0 0 1080 2400">
    <rect width="1080" height="2400" fill="#FFFFFF"/>
    <style>
      .t { font-family: 'Inter','Arial',sans-serif; fill:#111215; }
      .m { font-family: 'Inter','Arial',sans-serif; fill:#70757D; }
    </style>
    <title>27 Transfer Interrupted</title><text x="72" y="78" font-family="Inter, Arial, sans-serif" font-size="28" font-weight="650" text-anchor="start" fill="#111215">9:41</text><path d="M870 65 l18 0 l-9 14 z" fill="#111215" stroke="none" stroke-width="0" stroke-linecap="round" stroke-linejoin="round" opacity="1"/><path d="M906 79 l13 -18 l0 18 z" fill="#111215" stroke="none" stroke-width="0" stroke-linecap="round" stroke-linejoin="round" opacity="1"/><rect x="944" y="59" width="28" height="20" rx="3" fill="#111215" stroke="none" stroke-width="0" opacity="1"/><path d="M78 166 L50 194 L78 222" fill="none" stroke="#111215" stroke-width="7" stroke-linecap="round" stroke-linejoin="round" opacity="1"/><text x="540" y="205" font-family="Inter, Arial, sans-serif" font-size="42" font-weight="700" text-anchor="middle" fill="#111215">Transfer Interrupted</text><circle cx="540" cy="640" r="100" fill="#FFE5E2" stroke="none" stroke-width="0" opacity="1"/><text x="540" y="675" font-family="Inter, Arial, sans-serif" font-size="72" font-weight="800" text-anchor="middle" fill="#111215">!</text><text x="540" y="895" font-family="Inter, Arial, sans-serif" font-size="44" font-weight="760" text-anchor="middle" fill="#111215">Connection lost</text><text x="540" y="990" font-family="Inter, Arial, sans-serif" font-size="31" font-weight="450" text-anchor="middle" fill="#70757D"><tspan x="540" dy="0">The devices moved out of range or</tspan><tspan x="540" dy="44">the connection was interrupted.</tspan></text><rect x="130" y="1260" width="820" height="230" rx="30" fill="#F3FBE7" stroke="none" stroke-width="0" opacity="1"/><text x="170" y="1335" font-family="Inter, Arial, sans-serif" font-size="30" font-weight="650" text-anchor="start" fill="#111215">2 of 3 files completed</text><rect x="170" y="1395" width="740" height="14" rx="7" fill="#E8EAEC" stroke="none" stroke-width="0" opacity="1"/><rect x="170" y="1395" width="488.40000000000003" height="14" rx="7" fill="#B6FF20" stroke="none" stroke-width="0" opacity="1"/><text x="910" y="1450" font-family="Inter, Arial, sans-serif" font-size="26" font-weight="600" text-anchor="end" fill="#111215">66%</text><rect x="70" y="1770" width="940" height="112" rx="56.0" fill="#B6FF20" stroke="none" stroke-width="3" opacity="1"/><text x="540.0" y="1840.0" font-family="Inter, Arial, sans-serif" font-size="38" font-weight="700" text-anchor="middle" fill="#111215">Retry Transfer</text><rect x="70" y="1920" width="940" height="112" rx="56.0" fill="#FFFFFF" stroke="#E7E9EC" stroke-width="3" opacity="1"/><text x="540.0" y="1990.0" font-family="Inter, Arial, sans-serif" font-size="38" font-weight="700" text-anchor="middle" fill="#111215">Cancel</text><rect x="405" y="2325" width="270" height="10" rx="5" fill="#222" stroke="none" stroke-width="0" opacity="1"/></svg>